<svg width="350" height="15" viewBox="0 0 350 15" fill="none" xmlns="http://www.w3.org/2000/svg">
<path d="M6.61921 9.34C5.94721 9.34 5.42454 9.13467 5.05121 8.724C4.67788 8.31333 4.49121 7.744 4.49121 7.016C4.49121 6.26933 4.68254 5.69533 5.06521 5.294C5.45721 4.88333 5.99388 4.678 6.67521 4.678C6.89921 4.678 7.11388 4.70133 7.31921 4.748C7.53388 4.78533 7.74388 4.85067 7.94921 4.944L7.71121 5.644C7.53388 5.56933 7.35654 5.51333 7.17921 5.476C7.01121 5.43867 6.83854 5.42 6.66121 5.42C6.25054 5.42 5.93788 5.55533 5.72321 5.826C5.51788 6.08733 5.41521 6.484 5.41521 7.016C5.41521 7.52 5.51788 7.912 5.72321 8.192C5.92854 8.46267 6.22721 8.598 6.61921 8.598C6.80588 8.598 7.00188 8.57467 7.20721 8.528C7.42188 8.472 7.64588 8.39733 7.87921 8.304V9.06C7.65521 9.15333 7.44054 9.22333 7.23521 9.27C7.02988 9.31667 6.82454 9.34 6.61921 9.34ZM6.24121 12.77C5.44788 12.77 4.70121 12.6207 4.00121 12.322C3.30121 12.0233 2.68521 11.6127 2.15321 11.09C1.63054 10.558 1.21988 9.942 0.921211 9.242C0.622544 8.542 0.473211 7.79533 0.473211 7.002C0.473211 6.19933 0.622544 5.45267 0.921211 4.762C1.21988 4.062 1.63054 3.45067 2.15321 2.928C2.68521 2.396 3.30121 1.98067 4.00121 1.682C4.70121 1.38333 5.44788 1.234 6.24121 1.234C7.04388 1.234 7.79054 1.38333 8.48121 1.682C9.18121 1.98067 9.79254 2.396 10.3152 2.928C10.8472 3.45067 11.2625 4.062 11.5612 4.762C11.8599 5.45267 12.0092 6.19933 12.0092 7.002C12.0092 7.79533 11.8599 8.542 11.5612 9.242C11.2625 9.942 10.8472 10.558 10.3152 11.09C9.79254 11.6127 9.18121 12.0233 8.48121 12.322C7.79054 12.6207 7.04388 12.77 6.24121 12.77ZM6.24121 11.986C6.93188 11.986 7.57588 11.86 8.17321 11.608C8.77988 11.3467 9.31188 10.9873 9.76921 10.53C10.2265 10.0727 10.5812 9.54533 10.8332 8.948C11.0945 8.34133 11.2252 7.69267 11.2252 7.002C11.2252 6.31133 11.0945 5.66733 10.8332 5.07C10.5812 4.46333 10.2265 3.93133 9.76921 3.474C9.31188 3.01667 8.77988 2.662 8.17321 2.41C7.57588 2.14867 6.93188 2.018 6.24121 2.018C5.55054 2.018 4.90188 2.14867 4.29521 2.41C3.69788 2.662 3.17054 3.01667 2.71321 3.474C2.25588 3.93133 1.89654 4.46333 1.63521 5.07C1.38321 5.66733 1.25721 6.31133 1.25721 7.002C1.25721 7.69267 1.38321 8.34133 1.63521 8.948C1.89654 9.54533 2.25588 10.0727 2.71321 10.53C3.17054 10.9873 3.69788 11.3467 4.29521 11.608C4.90188 11.86 5.55054 11.986 6.24121 11.986ZM23.0781 4.91113V4.95215H24.2402V4.91113C24.2402 3.74902 24.9922 2.99023 26.127 2.99023C27.2754 2.99023 28.0205 3.6875 28.0205 4.74707C28.0205 5.52637 27.7197 6.05273 26.4688 7.4541L23.1328 11.166V12H29.374V10.9062H24.8555V10.79L27.1797 8.26074C28.752 6.54492 29.2168 5.72461 29.2168 4.69922C29.2168 3.05176 27.9727 1.93066 26.1611 1.93066C24.3633 1.93066 23.0781 3.1748 23.0781 4.91113ZM36.9619 5.9707C36.9961 6.3125 37.0098 6.6748 37.0098 7.07129C37.0098 9.74414 36.2783 11.1592 34.8838 11.1592C33.9541 11.1592 33.3184 10.5303 32.9971 9.32031L36.9619 5.9707ZM32.7988 8.1582C32.7646 7.82324 32.751 7.46094 32.751 7.07129C32.751 4.3916 33.4893 2.9834 34.8838 2.9834C35.8203 2.9834 36.4561 3.61914 36.7705 4.84277L32.7988 8.1582ZM34.8838 1.91699C32.7373 1.91699 31.5547 3.74902 31.5547 7.07129C31.5547 10.3936 32.7373 12.2256 34.8838 12.2256C37.0234 12.2256 38.2129 10.3936 38.2129 7.07129C38.2129 3.74902 37.0234 1.91699 34.8838 1.91699ZM40.3867 4.91113V4.95215H41.5488V4.91113C41.5488 3.74902 42.3008 2.99023 43.4355 2.99023C44.584 2.99023 45.3291 3.6875 45.3291 4.74707C45.3291 5.52637 45.0283 6.05273 43.7773 7.4541L40.4414 11.166V12H46.6826V10.9062H42.1641V10.79L44.4883 8.26074C46.0605 6.54492 46.5254 5.72461 46.5254 4.69922C46.5254 3.05176 45.2812 1.93066 43.4697 1.93066C41.6719 1.93066 40.3867 3.1748 40.3867 4.91113ZM49.041 4.91113V4.95215H50.2031V4.91113C50.2031 3.74902 50.9551 2.99023 52.0898 2.99023C53.2383 2.99023 53.9834 3.6875 53.9834 4.74707C53.9834 5.52637 53.6826 6.05273 52.4316 7.4541L49.0957 11.166V12H55.3369V10.9062H50.8184V10.79L53.1426 8.26074C54.7148 6.54492 55.1797 5.72461 55.1797 4.69922C55.1797 3.05176 53.9355 1.93066 52.124 1.93066C50.3262 1.93066 49.041 3.1748 49.041 4.91113ZM71.8389 8.97852C71.8389 10.2705 71.0049 11.0635 69.6582 11.0635C68.0654 11.0635 67.2314 9.99023 67.2314 7.94629V6.18945C67.2314 4.14551 68.0586 3.07227 69.6514 3.07227C70.9092 3.07227 71.7842 3.94043 71.8389 5.22559H73.0557C73.0078 3.18164 71.7227 1.93066 69.6719 1.93066C67.3545 1.93066 66.0146 3.48926 66.0146 6.18945V7.94629C66.0146 10.6465 67.3545 12.2051 69.6719 12.2051C71.6611 12.2051 73.0557 10.9336 73.0557 9.08105V6.98242H69.5625V8.01465H71.8389V8.97852ZM77.3965 12.1299C78.4766 12.1299 79.2832 11.6855 79.6387 10.8926H79.7549V12.0068H80.8623V6.92773C80.8623 5.38281 79.8643 4.49414 78.1211 4.49414C76.6035 4.49414 75.4551 5.30762 75.3184 6.49707H76.46C76.6514 5.86133 77.2529 5.49902 78.1074 5.49902C79.1396 5.49902 79.707 6.01172 79.707 6.94141V7.61133L77.6699 7.71387C75.9814 7.80273 75.0381 8.58203 75.0381 9.89453C75.0381 11.2412 75.9814 12.1299 77.3965 12.1299ZM77.7314 11.1113C76.7949 11.1113 76.2139 10.6328 76.2139 9.85352C76.2139 9.08105 76.7607 8.63672 77.7998 8.58887L79.707 8.5V9.375C79.707 10.3662 78.8525 11.1113 77.7314 11.1113ZM89.8926 6.89355C89.7012 5.36914 88.5801 4.43945 86.9395 4.43945C84.9229 4.43945 83.7471 5.67676 83.7471 7.80273V8.77344C83.7471 10.8994 84.9229 12.1367 86.9395 12.1367C88.5801 12.1367 89.708 11.2139 89.8926 9.70312H88.7441C88.6006 10.5508 87.876 11.0908 86.9189 11.0908C85.627 11.0908 84.9092 10.2158 84.9092 8.62305V7.95312C84.9092 6.36035 85.627 5.47852 86.9189 5.47852C87.876 5.47852 88.6006 6.02539 88.7441 6.89355H89.8926ZM92.415 12H93.5771V7.63867C93.5771 6.37402 94.4043 5.51953 95.6279 5.51953C96.79 5.51953 97.3369 6.15527 97.3369 7.48828V12H98.499V7.19434C98.499 5.42383 97.624 4.45312 96.0107 4.45312C94.876 4.45312 94.0215 4.97266 93.6318 5.89551H93.5361V1.6709H92.415V12ZM104.111 12.1367C106.073 12.1367 107.324 10.8584 107.324 8.85547V7.73438C107.324 5.73145 106.073 4.45312 104.111 4.45312C102.149 4.45312 100.898 5.73145 100.898 7.73438V8.85547C100.898 10.8584 102.149 12.1367 104.111 12.1367ZM104.111 5.47852C105.383 5.47852 106.176 6.38086 106.176 7.83691V8.74609C106.176 10.209 105.383 11.1045 104.111 11.1045C102.84 11.1045 102.047 10.209 102.047 8.74609V7.83691C102.047 6.38086 102.84 5.47852 104.111 5.47852ZM109.73 12H110.893V7.63184C110.893 6.36719 111.713 5.5127 112.937 5.5127C114.092 5.5127 114.639 6.1416 114.639 7.48145V12H115.801V7.1875C115.801 5.41016 114.926 4.44629 113.312 4.44629C112.185 4.44629 111.337 4.96582 110.94 5.88867H110.845V4.58301H109.73V12ZM124.701 12V2.13574H123.505V6.4082H119.335V2.13574H118.139V12H119.335V7.51562H123.505V12H124.701ZM133.109 4.58301H131.947V8.95117C131.947 10.2158 131.127 11.0703 129.903 11.0703C128.748 11.0703 128.201 10.4414 128.201 9.10156V4.58301H127.039V9.39551C127.039 11.1729 127.914 12.1367 129.527 12.1367C130.655 12.1367 131.503 11.6172 131.899 10.6943H131.995V12H133.109V4.58301ZM139.193 12.123C140.909 12.123 142.03 10.8857 142.03 8.97852V7.59766C142.03 5.69727 140.909 4.45996 139.193 4.45996C138.12 4.45996 137.334 4.91797 137.006 5.73145H136.883V1.6709H135.7V12H136.842V10.8652H136.972C137.354 11.6855 138.134 12.123 139.193 12.123ZM138.852 11.0635C137.635 11.0635 136.855 10.1885 136.855 8.81445V7.74805C136.855 6.38086 137.635 5.50586 138.852 5.50586C140.082 5.50586 140.861 6.38086 140.861 7.74805V8.81445C140.861 10.1816 140.082 11.0635 138.852 11.0635Z" fill="#3D7FFF"/>
<path d="M156.502 12.123C158.218 12.123 159.339 10.8857 159.339 8.97852V7.59766C159.339 5.69727 158.218 4.45996 156.502 4.45996C155.429 4.45996 154.643 4.91797 154.314 5.73145H154.191V1.6709H153.009V12H154.15V10.8652H154.28C154.663 11.6855 155.442 12.123 156.502 12.123ZM156.16 11.0635C154.943 11.0635 154.164 10.1885 154.164 8.81445V7.74805C154.164 6.38086 154.943 5.50586 156.16 5.50586C157.391 5.50586 158.17 6.38086 158.17 7.74805V8.81445C158.17 10.1816 157.391 11.0635 156.16 11.0635ZM162.613 14.6387C163.987 14.6387 164.609 14.0986 165.259 12.2734L168.055 4.58301H166.817L164.746 10.79H164.657L162.579 4.58301H161.314L164.042 12.0479L163.912 12.4512C163.604 13.3125 163.222 13.627 162.524 13.627C162.415 13.627 162.203 13.6201 162.114 13.5996V14.6182C162.217 14.6318 162.442 14.6387 162.613 14.6387ZM183.647 4.58301H179.115V5.54688H182.506V11.8223C182.506 12.8818 182.089 13.21 180.708 13.21C180.257 13.21 179.3 13.1895 178.944 13.1553V14.1943C179.437 14.2354 180.229 14.249 180.742 14.249C182.807 14.249 183.647 13.5996 183.647 11.959V4.58301ZM182.978 2.76465C183.524 2.76465 183.941 2.35449 183.941 1.80762C183.941 1.26758 183.524 0.857422 182.978 0.857422C182.431 0.857422 182.014 1.26758 182.014 1.80762C182.014 2.35449 182.431 2.76465 182.978 2.76465ZM189.902 12.1299C190.982 12.1299 191.789 11.6855 192.145 10.8926H192.261V12.0068H193.368V6.92773C193.368 5.38281 192.37 4.49414 190.627 4.49414C189.109 4.49414 187.961 5.30762 187.824 6.49707H188.966C189.157 5.86133 189.759 5.49902 190.613 5.49902C191.646 5.49902 192.213 6.01172 192.213 6.94141V7.61133L190.176 7.71387C188.487 7.80273 187.544 8.58203 187.544 9.89453C187.544 11.2412 188.487 12.1299 189.902 12.1299ZM190.237 11.1113C189.301 11.1113 188.72 10.6328 188.72 9.85352C188.72 9.08105 189.267 8.63672 190.306 8.58887L192.213 8.5V9.375C192.213 10.3662 191.358 11.1113 190.237 11.1113ZM199.391 5.44434C200.587 5.44434 201.312 6.29883 201.312 7.71387H197.408C197.408 6.29199 198.153 5.44434 199.391 5.44434ZM201.312 10.0859C201.106 10.7354 200.416 11.1318 199.479 11.1318C198.215 11.1318 197.408 10.2568 197.408 8.89648V8.5957H202.46V7.87109C202.46 5.72461 201.325 4.44629 199.397 4.44629C197.511 4.44629 196.26 5.73145 196.26 7.68652V8.80078C196.26 10.9131 197.442 12.1367 199.479 12.1367C201.038 12.1367 202.214 11.3096 202.439 10.0859H201.312ZM208.045 5.44434C209.241 5.44434 209.966 6.29883 209.966 7.71387H206.062C206.062 6.29199 206.808 5.44434 208.045 5.44434ZM209.966 10.0859C209.761 10.7354 209.07 11.1318 208.134 11.1318C206.869 11.1318 206.062 10.2568 206.062 8.89648V8.5957H211.114V7.87109C211.114 5.72461 209.979 4.44629 208.052 4.44629C206.165 4.44629 204.914 5.73145 204.914 7.68652V8.80078C204.914 10.9131 206.097 12.1367 208.134 12.1367C209.692 12.1367 210.868 11.3096 211.094 10.0859H209.966ZM213.917 6.58594C213.917 7.63867 214.58 8.31543 215.92 8.62305L217.021 8.87598C217.964 9.08789 218.326 9.40234 218.326 9.99023C218.326 10.7012 217.684 11.1592 216.672 11.1592C215.715 11.1592 215.059 10.7627 214.888 10.0791H213.705C213.835 11.3506 214.949 12.1367 216.631 12.1367C218.388 12.1367 219.529 11.248 219.529 9.88086C219.529 8.80762 218.873 8.17871 217.431 7.85059L216.385 7.61133C215.455 7.40625 215.072 7.08496 215.072 6.51758C215.072 5.84082 215.681 5.40332 216.624 5.40332C217.492 5.40332 218.114 5.7998 218.251 6.44922H219.372C219.235 5.21191 218.189 4.43945 216.645 4.43945C215.011 4.43945 213.917 5.30078 213.917 6.58594ZM228.307 4.58301H227.145V8.95117C227.145 10.2158 226.324 11.0703 225.101 11.0703C223.945 11.0703 223.398 10.4414 223.398 9.10156V4.58301H222.236V9.39551C222.236 11.1729 223.111 12.1367 224.725 12.1367C225.853 12.1367 226.7 11.6172 227.097 10.6943H227.192V12H228.307V4.58301ZM245.232 12H246.586L245.062 10.1475C245.526 9.33398 245.766 8.33594 245.807 7.12598V7.02344H244.815V7.08496C244.788 8.00098 244.658 8.70508 244.405 9.2998L242.279 6.62695C243.633 5.73828 244.118 5.03418 244.118 4.04297C244.118 2.79199 243.223 1.93066 241.938 1.93066C240.639 1.93066 239.729 2.79199 239.729 4.04297C239.729 4.75391 240.085 5.5332 240.837 6.44922L240.522 6.66113C239.319 7.44727 238.731 8.36328 238.731 9.44336C238.731 11.0498 239.941 12.1777 241.671 12.1777C242.737 12.1777 243.667 11.7744 244.446 10.9883L245.232 12ZM241.145 7.37891L241.418 7.20117L243.852 10.2432C243.353 10.8379 242.594 11.1592 241.712 11.1592C240.584 11.1592 239.825 10.4482 239.825 9.38867C239.825 8.58203 240.242 7.93945 241.145 7.37891ZM241.931 2.8877C242.601 2.8877 243.106 3.38672 243.106 4.05664C243.106 4.78125 242.765 5.25293 241.698 5.95703C241.015 5.13672 240.755 4.61035 240.755 4.05664C240.755 3.38672 241.261 2.8877 241.931 2.8877ZM258.624 2.59375V4.60352H256.648V5.59473H258.624V9.79199C258.624 11.3369 259.479 12.0342 261.317 12.0342C261.673 12.0342 262.575 12 262.76 11.9658V10.9814C262.562 11.002 261.816 11.0225 261.399 11.0225C260.354 11.0225 259.786 10.585 259.786 9.77832V5.59473H262.78V4.60352H259.772V2.59375H258.624ZM268.625 5.44434C269.821 5.44434 270.546 6.29883 270.546 7.71387H266.643C266.643 6.29199 267.388 5.44434 268.625 5.44434ZM270.546 10.0859C270.341 10.7354 269.65 11.1318 268.714 11.1318C267.449 11.1318 266.643 10.2568 266.643 8.89648V8.5957H271.694V7.87109C271.694 5.72461 270.56 4.44629 268.632 4.44629C266.745 4.44629 265.494 5.73145 265.494 7.68652V8.80078C265.494 10.9131 266.677 12.1367 268.714 12.1367C270.272 12.1367 271.448 11.3096 271.674 10.0859H270.546ZM276.445 12.1299C277.525 12.1299 278.332 11.6855 278.688 10.8926H278.804V12.0068H279.911V6.92773C279.911 5.38281 278.913 4.49414 277.17 4.49414C275.652 4.49414 274.504 5.30762 274.367 6.49707H275.509C275.7 5.86133 276.302 5.49902 277.156 5.49902C278.188 5.49902 278.756 6.01172 278.756 6.94141V7.61133L276.719 7.71387C275.03 7.80273 274.087 8.58203 274.087 9.89453C274.087 11.2412 275.03 12.1299 276.445 12.1299ZM276.78 11.1113C275.844 11.1113 275.263 10.6328 275.263 9.85352C275.263 9.08105 275.81 8.63672 276.849 8.58887L278.756 8.5V9.375C278.756 10.3662 277.901 11.1113 276.78 11.1113ZM285.544 6.47656V4.58301H282.775V5.5127H284.423V11.0703H282.926V12H287.854V11.0703H285.558V8.67773C285.558 6.79102 286.528 5.65625 288.169 5.65625C288.572 5.65625 289.051 5.73828 289.393 5.86133V4.55566C289.146 4.45312 288.743 4.3916 288.319 4.3916C286.891 4.3916 285.968 5.10254 285.694 6.47656H285.544ZM294.506 12.1367C296.468 12.1367 297.719 10.8584 297.719 8.85547V7.73438C297.719 5.73145 296.468 4.45312 294.506 4.45312C292.544 4.45312 291.293 5.73145 291.293 7.73438V8.85547C291.293 10.8584 292.544 12.1367 294.506 12.1367ZM294.506 5.47852C295.777 5.47852 296.57 6.38086 296.57 7.83691V8.74609C296.57 10.209 295.777 11.1045 294.506 11.1045C293.234 11.1045 292.441 10.209 292.441 8.74609V7.83691C292.441 6.38086 293.234 5.47852 294.506 5.47852ZM302.066 12H303.229V5.59473H306.489V4.60352H303.215V3.83789C303.215 3.09277 303.762 2.70996 304.794 2.70996C305.211 2.70996 306.168 2.7373 306.489 2.77148V1.82129C306.243 1.78711 305.211 1.75293 304.78 1.75293C302.955 1.75293 302.066 2.42285 302.066 3.8584V4.60352H300.077V5.59473H302.066V12ZM309.606 8.7666V7.74805C309.606 6.3877 310.399 5.50586 311.63 5.50586C312.854 5.50586 313.64 6.38086 313.64 7.74805V8.7666C313.64 10.1338 312.854 11.0156 311.63 11.0156C310.399 11.0156 309.606 10.127 309.606 8.7666ZM311.596 14.7822C313.605 14.7822 314.795 13.7432 314.795 12V4.58301H313.646V5.73145H313.517C313.195 4.93164 312.382 4.45996 311.309 4.45996C309.572 4.45996 308.438 5.69043 308.438 7.59766V8.93066C308.438 10.8311 309.565 12.0684 311.281 12.0684C312.361 12.0684 313.182 11.5967 313.51 10.8174H313.633V11.9727C313.633 13.1621 312.915 13.8184 311.616 13.8184C310.625 13.8184 309.88 13.415 309.729 12.7998H308.581C308.731 14.0303 309.88 14.7822 311.596 14.7822ZM323.709 12V11.0361H321.262V1.6709H317.584V2.63477H320.1V11.0361H317.563V12H323.709ZM328.371 12.1299C329.451 12.1299 330.258 11.6855 330.613 10.8926H330.729V12.0068H331.837V6.92773C331.837 5.38281 330.839 4.49414 329.096 4.49414C327.578 4.49414 326.43 5.30762 326.293 6.49707H327.435C327.626 5.86133 328.228 5.49902 329.082 5.49902C330.114 5.49902 330.682 6.01172 330.682 6.94141V7.61133L328.645 7.71387C326.956 7.80273 326.013 8.58203 326.013 9.89453C326.013 11.2412 326.956 12.1299 328.371 12.1299ZM328.706 11.1113C327.77 11.1113 327.188 10.6328 327.188 9.85352C327.188 9.08105 327.735 8.63672 328.774 8.58887L330.682 8.5V9.375C330.682 10.3662 329.827 11.1113 328.706 11.1113ZM335.077 6.58594C335.077 7.63867 335.74 8.31543 337.08 8.62305L338.181 8.87598C339.124 9.08789 339.486 9.40234 339.486 9.99023C339.486 10.7012 338.844 11.1592 337.832 11.1592C336.875 11.1592 336.219 10.7627 336.048 10.0791H334.865C334.995 11.3506 336.109 12.1367 337.791 12.1367C339.548 12.1367 340.689 11.248 340.689 9.88086C340.689 8.80762 340.033 8.17871 338.591 7.85059L337.545 7.61133C336.615 7.40625 336.232 7.08496 336.232 6.51758C336.232 5.84082 336.841 5.40332 337.784 5.40332C338.652 5.40332 339.274 5.7998 339.411 6.44922H340.532C340.396 5.21191 339.35 4.43945 337.805 4.43945C336.171 4.43945 335.077 5.30078 335.077 6.58594ZM343.731 6.58594C343.731 7.63867 344.395 8.31543 345.734 8.62305L346.835 8.87598C347.778 9.08789 348.141 9.40234 348.141 9.99023C348.141 10.7012 347.498 11.1592 346.486 11.1592C345.529 11.1592 344.873 10.7627 344.702 10.0791H343.52C343.649 11.3506 344.764 12.1367 346.445 12.1367C348.202 12.1367 349.344 11.248 349.344 9.88086C349.344 8.80762 348.688 8.17871 347.245 7.85059L346.199 7.61133C345.27 7.40625 344.887 7.08496 344.887 6.51758C344.887 5.84082 345.495 5.40332 346.438 5.40332C347.307 5.40332 347.929 5.7998 348.065 6.44922H349.187C349.05 5.21191 348.004 4.43945 346.459 4.43945C344.825 4.43945 343.731 5.30078 343.731 6.58594Z" fill="black"/>
</svg>
