<svg width="366" height="19" viewBox="0 0 366 19" fill="none" xmlns="http://www.w3.org/2000/svg">
<path d="M7.93424 11.58C7.07024 11.58 6.39824 11.316 5.91824 10.788C5.43824 10.26 5.19824 9.528 5.19824 8.592C5.19824 7.632 5.44424 6.894 5.93624 6.378C6.44024 5.85 7.13024 5.586 8.00624 5.586C8.29424 5.586 8.57024 5.616 8.83424 5.676C9.11024 5.724 9.38024 5.808 9.64424 5.928L9.33824 6.828C9.11024 6.732 8.88224 6.66 8.65424 6.612C8.43824 6.564 8.21624 6.54 7.98824 6.54C7.46024 6.54 7.05824 6.714 6.78224 7.062C6.51824 7.398 6.38624 7.908 6.38624 8.592C6.38624 9.24 6.51824 9.744 6.78224 10.104C7.04624 10.452 7.43024 10.626 7.93424 10.626C8.17424 10.626 8.42624 10.596 8.69024 10.536C8.96624 10.464 9.25424 10.368 9.55424 10.248V11.22C9.26624 11.34 8.99024 11.43 8.72624 11.49C8.46224 11.55 8.19824 11.58 7.93424 11.58ZM7.44824 15.99C6.42824 15.99 5.46824 15.798 4.56824 15.414C3.66824 15.03 2.87624 14.502 2.19224 13.83C1.52024 13.146 0.992242 12.354 0.608242 11.454C0.224242 10.554 0.0322423 9.594 0.0322423 8.574C0.0322423 7.542 0.224242 6.582 0.608242 5.694C0.992242 4.794 1.52024 4.008 2.19224 3.336C2.87624 2.652 3.66824 2.118 4.56824 1.734C5.46824 1.35 6.42824 1.158 7.44824 1.158C8.48024 1.158 9.44024 1.35 10.3282 1.734C11.2282 2.118 12.0142 2.652 12.6862 3.336C13.3702 4.008 13.9042 4.794 14.2882 5.694C14.6722 6.582 14.8642 7.542 14.8642 8.574C14.8642 9.594 14.6722 10.554 14.2882 11.454C13.9042 12.354 13.3702 13.146 12.6862 13.83C12.0142 14.502 11.2282 15.03 10.3282 15.414C9.44024 15.798 8.48024 15.99 7.44824 15.99ZM7.44824 14.982C8.33624 14.982 9.16424 14.82 9.93224 14.496C10.7122 14.16 11.3962 13.698 11.9842 13.11C12.5722 12.522 13.0282 11.844 13.3522 11.076C13.6882 10.296 13.8562 9.462 13.8562 8.574C13.8562 7.686 13.6882 6.858 13.3522 6.09C13.0282 5.31 12.5722 4.626 11.9842 4.038C11.3962 3.45 10.7122 2.994 9.93224 2.67C9.16424 2.334 8.33624 2.166 7.44824 2.166C6.56024 2.166 5.72624 2.334 4.94624 2.67C4.17824 2.994 3.50024 3.45 2.91224 4.038C2.32424 4.626 1.86224 5.31 1.52624 6.09C1.20224 6.858 1.04024 7.686 1.04024 8.574C1.04024 9.462 1.20224 10.296 1.52624 11.076C1.86224 11.844 2.32424 12.522 2.91224 13.11C3.50024 13.698 4.17824 14.16 4.94624 14.496C5.72624 14.82 6.56024 14.982 7.44824 14.982ZM23.1132 15.054C22.9812 15.054 22.8792 15.048 22.8072 15.036C22.7472 15.036 22.6992 15.024 22.6632 15C22.6392 14.964 22.6212 14.916 22.6092 14.856C22.6092 14.784 22.6092 14.682 22.6092 14.55L22.6272 14.154C22.6272 13.998 22.6752 13.872 22.7712 13.776L25.7412 10.5C27.9492 8.112 29.0532 6.3 29.0532 5.064C29.0532 4.344 28.8132 3.744 28.3332 3.264C27.8652 2.796 27.2832 2.562 26.5872 2.562C25.6152 2.562 24.6012 2.832 23.5452 3.372C23.3772 3.456 23.2812 3.42 23.2572 3.264L23.1492 2.67C23.1132 2.466 23.1732 2.34 23.3292 2.292C23.9412 2.016 24.4932 1.812 24.9852 1.68C25.4772 1.548 25.9812 1.482 26.4972 1.482C27.6492 1.482 28.5672 1.77 29.2512 2.346C30.0192 2.97 30.4032 3.858 30.4032 5.01C30.4032 5.454 30.2952 5.94 30.0792 6.468C29.8632 6.996 29.5632 7.548 29.1792 8.124C28.9392 8.46 28.5972 8.898 28.1532 9.438C27.7212 9.978 27.2232 10.554 26.6592 11.166C26.2392 11.622 25.8192 12.084 25.3992 12.552C24.9912 13.02 24.5772 13.482 24.1572 13.938H30.4572C30.6252 13.938 30.7092 14.022 30.7092 14.19V14.802C30.7092 14.97 30.6252 15.054 30.4572 15.054H23.1132ZM41.0312 8.322C41.0312 4.554 39.9992 2.67 37.9352 2.67C35.8712 2.67 34.8392 4.554 34.8392 8.322C34.8392 12.102 35.8712 13.992 37.9352 13.992C39.9992 13.992 41.0312 12.102 41.0312 8.322ZM42.3272 8.322C42.3272 12.858 40.8632 15.126 37.9352 15.126C34.9832 15.126 33.5072 12.858 33.5072 8.322C33.5072 6.438 33.7952 4.908 34.3712 3.732C35.1032 2.256 36.2912 1.518 37.9352 1.518C39.5552 1.518 40.7372 2.256 41.4812 3.732C41.7572 4.32 41.9672 4.992 42.1112 5.748C42.2552 6.504 42.3272 7.362 42.3272 8.322ZM44.9452 15.054C44.8132 15.054 44.7112 15.048 44.6392 15.036C44.5792 15.036 44.5312 15.024 44.4952 15C44.4712 14.964 44.4532 14.916 44.4412 14.856C44.4412 14.784 44.4412 14.682 44.4412 14.55L44.4592 14.154C44.4592 13.998 44.5072 13.872 44.6032 13.776L47.5732 10.5C49.7812 8.112 50.8852 6.3 50.8852 5.064C50.8852 4.344 50.6452 3.744 50.1652 3.264C49.6972 2.796 49.1152 2.562 48.4192 2.562C47.4472 2.562 46.4332 2.832 45.3772 3.372C45.2092 3.456 45.1132 3.42 45.0892 3.264L44.9812 2.67C44.9452 2.466 45.0052 2.34 45.1612 2.292C45.7732 2.016 46.3252 1.812 46.8172 1.68C47.3092 1.548 47.8132 1.482 48.3292 1.482C49.4812 1.482 50.3992 1.77 51.0832 2.346C51.8512 2.97 52.2352 3.858 52.2352 5.01C52.2352 5.454 52.1272 5.94 51.9112 6.468C51.6952 6.996 51.3952 7.548 51.0112 8.124C50.7712 8.46 50.4292 8.898 49.9852 9.438C49.5532 9.978 49.0552 10.554 48.4912 11.166C48.0712 11.622 47.6512 12.084 47.2312 12.552C46.8232 13.02 46.4092 13.482 45.9892 13.938H52.2892C52.4572 13.938 52.5412 14.022 52.5412 14.19V14.802C52.5412 14.97 52.4572 15.054 52.2892 15.054H44.9452ZM55.8612 15.054C55.7292 15.054 55.6272 15.048 55.5552 15.036C55.4952 15.036 55.4472 15.024 55.4112 15C55.3872 14.964 55.3692 14.916 55.3572 14.856C55.3572 14.784 55.3572 14.682 55.3572 14.55L55.3752 14.154C55.3752 13.998 55.4232 13.872 55.5192 13.776L58.4892 10.5C60.6972 8.112 61.8012 6.3 61.8012 5.064C61.8012 4.344 61.5612 3.744 61.0812 3.264C60.6132 2.796 60.0312 2.562 59.3352 2.562C58.3632 2.562 57.3492 2.832 56.2932 3.372C56.1252 3.456 56.0292 3.42 56.0052 3.264L55.8972 2.67C55.8612 2.466 55.9212 2.34 56.0772 2.292C56.6892 2.016 57.2412 1.812 57.7332 1.68C58.2252 1.548 58.7292 1.482 59.2452 1.482C60.3972 1.482 61.3152 1.77 61.9992 2.346C62.7672 2.97 63.1512 3.858 63.1512 5.01C63.1512 5.454 63.0432 5.94 62.8272 6.468C62.6112 6.996 62.3112 7.548 61.9272 8.124C61.6872 8.46 61.3452 8.898 60.9012 9.438C60.4692 9.978 59.9712 10.554 59.4072 11.166C58.9872 11.622 58.5672 12.084 58.1472 12.552C57.7392 13.02 57.3252 13.482 56.9052 13.938H63.2052C63.3732 13.938 63.4572 14.022 63.4572 14.19V14.802C63.4572 14.97 63.3732 15.054 63.2052 15.054H55.8612ZM82.1541 7.782C82.4061 7.782 82.5501 7.806 82.5861 7.854C82.6341 7.89 82.6581 8.034 82.6581 8.286V13.992C82.6581 14.124 82.6161 14.238 82.5321 14.334C82.4601 14.43 82.3761 14.502 82.2801 14.55C81.7041 14.766 81.0981 14.928 80.4621 15.036C79.8381 15.156 79.1841 15.216 78.5001 15.216C77.5041 15.216 76.5801 15.066 75.7281 14.766C74.8881 14.454 74.1621 14.01 73.5501 13.434C72.9381 12.846 72.4581 12.126 72.1101 11.274C71.7741 10.41 71.6061 9.426 71.6061 8.322C71.6061 7.314 71.7621 6.39 72.0741 5.55C72.3981 4.71 72.8541 3.984 73.4421 3.372C74.0421 2.76 74.7681 2.286 75.6201 1.95C76.4721 1.602 77.4321 1.428 78.5001 1.428C79.1721 1.428 79.7541 1.458 80.2461 1.518C80.7501 1.578 81.2841 1.698 81.8481 1.878C82.0281 1.926 82.1001 2.046 82.0641 2.238L81.9741 2.904C81.9621 3.06 81.8721 3.114 81.7041 3.066C81.1641 2.862 80.6481 2.73 80.1561 2.67C79.6641 2.598 79.1121 2.562 78.5001 2.562C77.6481 2.562 76.8741 2.706 76.1781 2.994C75.4941 3.27 74.9061 3.66 74.4141 4.164C73.9341 4.668 73.5621 5.274 73.2981 5.982C73.0461 6.69 72.9201 7.47 72.9201 8.322C72.9201 9.246 73.0581 10.068 73.3341 10.788C73.6101 11.508 73.9941 12.114 74.4861 12.606C74.9901 13.086 75.5781 13.452 76.2501 13.704C76.9341 13.956 77.6841 14.082 78.5001 14.082C79.8321 14.082 80.7801 13.92 81.3441 13.596V8.916H77.7261C77.5581 8.916 77.4741 8.832 77.4741 8.664V8.034C77.4741 7.866 77.5581 7.782 77.7261 7.782H82.1541ZM91.7639 9.906H91.4219C90.7499 9.882 90.1499 9.912 89.6219 9.996C89.1059 10.068 88.6739 10.17 88.3259 10.302C87.8219 10.482 87.4439 10.752 87.1919 11.112C86.9399 11.46 86.8139 11.88 86.8139 12.372C86.8139 12.672 86.8619 12.954 86.9579 13.218C87.0539 13.47 87.2039 13.668 87.4079 13.812C87.7679 14.1 88.2479 14.244 88.8479 14.244C89.2679 14.244 89.6519 14.16 89.9999 13.992C90.3599 13.824 90.6719 13.584 90.9359 13.272C91.1999 12.96 91.4039 12.576 91.5479 12.12C91.6919 11.652 91.7639 11.118 91.7639 10.518V9.906ZM86.6339 6.756C86.5739 6.792 86.5139 6.804 86.4539 6.792C86.4059 6.768 86.3819 6.726 86.3819 6.666V5.982C86.3819 5.814 86.4659 5.688 86.6339 5.604C87.0539 5.376 87.4979 5.22 87.9659 5.136C88.4459 5.04 88.9679 4.992 89.5319 4.992C90.7319 4.992 91.6079 5.28 92.1599 5.856C92.7119 6.42 92.9879 7.278 92.9879 8.43V12.948C92.9879 13.308 92.9939 13.632 93.0059 13.92C93.0179 14.196 93.0359 14.466 93.0599 14.73C93.0599 14.898 92.9759 14.982 92.8079 14.982H92.1599C91.9919 14.982 91.9079 14.898 91.9079 14.73V13.344C91.6559 13.956 91.2299 14.43 90.6299 14.766C90.0419 15.102 89.3999 15.27 88.7039 15.27C87.4919 15.27 86.6039 14.916 86.0399 14.208C85.8479 13.968 85.7039 13.692 85.6079 13.38C85.5119 13.056 85.4639 12.738 85.4639 12.426C85.4639 11.694 85.6319 11.064 85.9679 10.536C86.3159 10.008 86.8439 9.612 87.5519 9.348C88.4159 9.036 89.7419 8.88 91.5299 8.88H91.7639V8.34C91.7639 7.584 91.5899 7.008 91.2419 6.612C90.9059 6.216 90.3359 6.018 89.5319 6.018C88.9919 6.018 88.4819 6.078 88.0019 6.198C87.5219 6.306 87.0659 6.492 86.6339 6.756ZM102.274 15.054C101.914 15.114 101.566 15.156 101.23 15.18C100.894 15.204 100.492 15.216 100.024 15.216C99.2805 15.216 98.6145 15.084 98.0265 14.82C97.4505 14.556 96.9585 14.196 96.5505 13.74C96.1545 13.284 95.8485 12.744 95.6325 12.12C95.4165 11.496 95.3085 10.824 95.3085 10.104C95.3085 9.372 95.4225 8.7 95.6505 8.088C95.8785 7.464 96.2025 6.93 96.6225 6.486C97.0545 6.03 97.5645 5.676 98.1525 5.424C98.7525 5.16 99.4245 5.028 100.168 5.028C100.564 5.028 100.924 5.046 101.248 5.082C101.572 5.106 101.92 5.16 102.292 5.244C102.46 5.292 102.538 5.406 102.526 5.586L102.472 6.162C102.448 6.306 102.358 6.36 102.202 6.324C101.89 6.228 101.59 6.162 101.302 6.126C101.014 6.078 100.696 6.054 100.348 6.054C99.7365 6.054 99.1965 6.156 98.7285 6.36C98.2725 6.552 97.8885 6.828 97.5765 7.188C97.2645 7.548 97.0305 7.98 96.8745 8.484C96.7185 8.976 96.6405 9.516 96.6405 10.104C96.6405 10.644 96.7185 11.16 96.8745 11.652C97.0425 12.144 97.2765 12.582 97.5765 12.966C97.8885 13.338 98.2605 13.638 98.6925 13.866C99.1365 14.082 99.6405 14.19 100.204 14.19C100.624 14.19 100.972 14.172 101.248 14.136C101.524 14.1 101.836 14.034 102.184 13.938C102.364 13.89 102.46 13.932 102.472 14.064L102.526 14.73C102.538 14.91 102.454 15.018 102.274 15.054ZM112.451 14.73C112.451 14.898 112.367 14.982 112.199 14.982H111.479C111.311 14.982 111.227 14.898 111.227 14.73V9.186C111.227 8.61 111.173 8.124 111.065 7.728C110.969 7.32 110.825 6.996 110.633 6.756C110.441 6.504 110.207 6.324 109.931 6.216C109.655 6.108 109.349 6.054 109.013 6.054C108.029 6.054 107.273 6.288 106.745 6.756C106.229 7.224 105.971 7.872 105.971 8.7V14.73C105.971 14.898 105.887 14.982 105.719 14.982H104.999C104.831 14.982 104.747 14.898 104.747 14.73V0.905999C104.747 0.737999 104.831 0.653999 104.999 0.653999H105.719C105.887 0.653999 105.971 0.737999 105.971 0.905999V6.126C106.307 5.742 106.721 5.466 107.213 5.298C107.717 5.118 108.341 5.028 109.085 5.028C110.249 5.028 111.101 5.37 111.641 6.054C112.181 6.738 112.451 7.776 112.451 9.168V14.73ZM122.791 10.122C122.791 9.558 122.713 9.03 122.557 8.538C122.413 8.046 122.209 7.608 121.945 7.224C121.321 6.456 120.511 6.072 119.515 6.072C119.011 6.072 118.555 6.174 118.147 6.378C117.751 6.57 117.397 6.852 117.085 7.224C116.809 7.608 116.593 8.046 116.437 8.538C116.293 9.03 116.221 9.558 116.221 10.122C116.221 10.698 116.293 11.232 116.437 11.724C116.593 12.216 116.809 12.648 117.085 13.02C117.721 13.8 118.531 14.19 119.515 14.19C120.019 14.19 120.469 14.088 120.865 13.884C121.273 13.68 121.633 13.392 121.945 13.02C122.209 12.648 122.413 12.216 122.557 11.724C122.713 11.232 122.791 10.698 122.791 10.122ZM124.123 10.122C124.123 10.83 124.021 11.49 123.817 12.102C123.613 12.702 123.343 13.23 123.007 13.686C122.587 14.19 122.083 14.58 121.495 14.856C120.919 15.132 120.259 15.27 119.515 15.27C118.771 15.27 118.105 15.132 117.517 14.856C116.929 14.58 116.425 14.19 116.005 13.686C115.669 13.23 115.399 12.702 115.195 12.102C115.003 11.49 114.907 10.83 114.907 10.122C114.907 8.67 115.273 7.482 116.005 6.558C116.845 5.514 118.015 4.992 119.515 4.992C120.271 4.992 120.937 5.124 121.513 5.388C122.089 5.64 122.587 6.03 123.007 6.558C123.751 7.506 124.123 8.694 124.123 10.122ZM134.283 14.73C134.283 14.898 134.199 14.982 134.031 14.982H133.311C133.143 14.982 133.059 14.898 133.059 14.73V9.06C133.059 7.956 132.861 7.176 132.465 6.72C132.069 6.252 131.511 6.018 130.791 6.018C129.819 6.018 129.075 6.288 128.559 6.828C128.055 7.368 127.803 8.124 127.803 9.096V14.73C127.803 14.898 127.719 14.982 127.551 14.982H126.831C126.663 14.982 126.579 14.898 126.579 14.73V7.53C126.579 7.014 126.573 6.612 126.561 6.324C126.561 6.036 126.549 5.76 126.525 5.496C126.513 5.412 126.531 5.352 126.579 5.316C126.639 5.268 126.705 5.244 126.777 5.244H127.425C127.593 5.244 127.677 5.328 127.677 5.496V6.486C128.013 5.97 128.415 5.592 128.883 5.352C129.363 5.112 130.017 4.992 130.845 4.992C131.985 4.992 132.843 5.322 133.419 5.982C133.995 6.642 134.283 7.572 134.283 8.772V14.73ZM147.125 14.73C147.125 14.898 147.041 14.982 146.873 14.982H146.063C145.895 14.982 145.811 14.898 145.811 14.73V8.664H138.989V14.73C138.989 14.898 138.905 14.982 138.737 14.982H137.927C137.759 14.982 137.675 14.898 137.675 14.73V1.878C137.675 1.71 137.759 1.626 137.927 1.626H138.737C138.905 1.626 138.989 1.71 138.989 1.878V7.53H145.811V1.878C145.811 1.71 145.895 1.626 146.063 1.626H146.873C147.041 1.626 147.125 1.71 147.125 1.878V14.73ZM158.313 14.73C158.313 14.898 158.229 14.982 158.061 14.982H157.413C157.245 14.982 157.161 14.898 157.161 14.73V13.236C156.849 13.956 156.429 14.478 155.901 14.802C155.385 15.114 154.731 15.27 153.939 15.27C151.695 15.27 150.573 14.016 150.573 11.508V5.496C150.573 5.328 150.657 5.244 150.825 5.244H151.545C151.713 5.244 151.797 5.328 151.797 5.496V11.184C151.797 13.224 152.577 14.244 154.137 14.244C154.593 14.244 155.001 14.148 155.361 13.956C155.733 13.752 156.045 13.482 156.297 13.146C156.549 12.798 156.741 12.396 156.873 11.94C157.005 11.484 157.065 11.004 157.053 10.5V5.496C157.053 5.328 157.137 5.244 157.305 5.244H158.025C158.193 5.244 158.277 5.328 158.277 5.496V12.732C158.277 13.128 158.277 13.482 158.277 13.794C158.289 14.106 158.301 14.418 158.313 14.73ZM168.437 10.05C168.449 9.546 168.401 9.054 168.293 8.574C168.197 8.094 168.035 7.662 167.807 7.278C167.579 6.894 167.273 6.588 166.889 6.36C166.517 6.12 166.055 6 165.503 6C165.011 6 164.579 6.108 164.207 6.324C163.847 6.528 163.547 6.816 163.307 7.188C163.067 7.56 162.887 7.992 162.767 8.484C162.647 8.976 162.587 9.498 162.587 10.05C162.587 10.59 162.659 11.112 162.803 11.616C162.959 12.108 163.163 12.54 163.415 12.912C163.679 13.284 163.985 13.584 164.333 13.812C164.693 14.028 165.083 14.136 165.503 14.136C166.055 14.136 166.517 14.022 166.889 13.794C167.273 13.554 167.579 13.242 167.807 12.858C168.035 12.474 168.197 12.036 168.293 11.544C168.401 11.052 168.449 10.554 168.437 10.05ZM161.381 0.852C161.381 0.684 161.465 0.6 161.633 0.6H162.335C162.503 0.6 162.587 0.684 162.587 0.852V6.594C162.887 6.102 163.313 5.712 163.865 5.424C164.417 5.124 165.035 4.974 165.719 4.974C168.395 4.974 169.733 6.666 169.733 10.05C169.745 10.722 169.673 11.37 169.517 11.994C169.373 12.606 169.133 13.146 168.797 13.614C168.461 14.082 168.035 14.46 167.519 14.748C167.015 15.024 166.415 15.162 165.719 15.162C164.279 15.162 163.235 14.55 162.587 13.326V14.73C162.587 14.898 162.503 14.982 162.335 14.982H161.633C161.465 14.982 161.381 14.898 161.381 14.73V0.852Z" fill="#3D7FFF"/>
<path d="M184.398 10.05C184.41 9.546 184.362 9.054 184.254 8.574C184.158 8.094 183.996 7.662 183.768 7.278C183.54 6.894 183.234 6.588 182.85 6.36C182.478 6.12 182.016 6 181.464 6C180.972 6 180.54 6.108 180.168 6.324C179.808 6.528 179.508 6.816 179.268 7.188C179.028 7.56 178.848 7.992 178.728 8.484C178.608 8.976 178.548 9.498 178.548 10.05C178.548 10.59 178.62 11.112 178.764 11.616C178.92 12.108 179.124 12.54 179.376 12.912C179.64 13.284 179.946 13.584 180.294 13.812C180.654 14.028 181.044 14.136 181.464 14.136C182.016 14.136 182.478 14.022 182.85 13.794C183.234 13.554 183.54 13.242 183.768 12.858C183.996 12.474 184.158 12.036 184.254 11.544C184.362 11.052 184.41 10.554 184.398 10.05ZM177.342 0.852C177.342 0.684 177.426 0.6 177.594 0.6H178.296C178.464 0.6 178.548 0.684 178.548 0.852V6.594C178.848 6.102 179.274 5.712 179.826 5.424C180.378 5.124 180.996 4.974 181.68 4.974C184.356 4.974 185.694 6.666 185.694 10.05C185.706 10.722 185.634 11.37 185.478 11.994C185.334 12.606 185.094 13.146 184.758 13.614C184.422 14.082 183.996 14.46 183.48 14.748C182.976 15.024 182.376 15.162 181.68 15.162C180.24 15.162 179.196 14.55 178.548 13.326V14.73C178.548 14.898 178.464 14.982 178.296 14.982H177.594C177.426 14.982 177.342 14.898 177.342 14.73V0.852ZM187.538 17.646C187.394 17.61 187.334 17.52 187.358 17.376L187.412 16.764C187.412 16.62 187.484 16.578 187.628 16.638C187.82 16.71 188.042 16.746 188.294 16.746C188.546 16.746 188.774 16.704 188.978 16.62C189.194 16.548 189.356 16.446 189.464 16.314C189.596 16.146 189.74 15.87 189.896 15.486C190.064 15.102 190.226 14.664 190.382 14.172C189.842 12.708 189.308 11.262 188.78 9.834C188.252 8.406 187.718 6.96 187.178 5.496C187.154 5.436 187.154 5.382 187.178 5.334C187.202 5.274 187.25 5.244 187.322 5.244H188.168C188.336 5.244 188.456 5.328 188.528 5.496L190.958 12.48C191.402 11.256 191.822 10.092 192.218 8.988C192.626 7.872 193.052 6.708 193.496 5.496C193.556 5.328 193.676 5.244 193.856 5.244H194.63C194.702 5.244 194.75 5.274 194.774 5.334C194.798 5.382 194.798 5.436 194.774 5.496L191.03 15.54C190.898 15.888 190.748 16.2 190.58 16.476C190.424 16.752 190.262 16.974 190.094 17.142C189.878 17.346 189.638 17.496 189.374 17.592C189.11 17.7 188.834 17.754 188.546 17.754C188.366 17.754 188.204 17.748 188.06 17.736C187.916 17.724 187.742 17.694 187.538 17.646ZM200.501 18.51C200.333 18.498 200.249 18.384 200.249 18.168V17.664C200.249 17.52 200.333 17.466 200.501 17.502C200.549 17.514 200.615 17.52 200.699 17.52C200.795 17.532 200.879 17.538 200.951 17.538C201.239 17.538 201.479 17.484 201.671 17.376C201.863 17.28 202.013 17.148 202.121 16.98C202.253 16.716 202.319 16.284 202.319 15.684V6.288C202.319 6.12 202.403 6.036 202.571 6.036H203.291C203.459 6.036 203.543 6.12 203.543 6.288V15.81C203.543 17.646 202.793 18.564 201.293 18.564C201.125 18.564 200.981 18.558 200.861 18.546C200.753 18.546 200.633 18.534 200.501 18.51ZM202.049 2.634C202.049 2.394 202.133 2.19 202.301 2.022C202.469 1.842 202.673 1.752 202.913 1.752C203.153 1.752 203.357 1.842 203.525 2.022C203.705 2.19 203.795 2.394 203.795 2.634C203.795 2.874 203.705 3.078 203.525 3.246C203.357 3.414 203.153 3.498 202.913 3.498C202.673 3.498 202.469 3.414 202.301 3.246C202.133 3.078 202.049 2.874 202.049 2.634ZM212.139 9.906H211.797C211.125 9.882 210.525 9.912 209.997 9.996C209.481 10.068 209.049 10.17 208.701 10.302C208.197 10.482 207.819 10.752 207.567 11.112C207.315 11.46 207.189 11.88 207.189 12.372C207.189 12.672 207.237 12.954 207.333 13.218C207.429 13.47 207.579 13.668 207.783 13.812C208.143 14.1 208.623 14.244 209.223 14.244C209.643 14.244 210.027 14.16 210.375 13.992C210.735 13.824 211.047 13.584 211.311 13.272C211.575 12.96 211.779 12.576 211.923 12.12C212.067 11.652 212.139 11.118 212.139 10.518V9.906ZM207.009 6.756C206.949 6.792 206.889 6.804 206.829 6.792C206.781 6.768 206.757 6.726 206.757 6.666V5.982C206.757 5.814 206.841 5.688 207.009 5.604C207.429 5.376 207.873 5.22 208.341 5.136C208.821 5.04 209.343 4.992 209.907 4.992C211.107 4.992 211.983 5.28 212.535 5.856C213.087 6.42 213.363 7.278 213.363 8.43V12.948C213.363 13.308 213.369 13.632 213.381 13.92C213.393 14.196 213.411 14.466 213.435 14.73C213.435 14.898 213.351 14.982 213.183 14.982H212.535C212.367 14.982 212.283 14.898 212.283 14.73V13.344C212.031 13.956 211.605 14.43 211.005 14.766C210.417 15.102 209.775 15.27 209.079 15.27C207.867 15.27 206.979 14.916 206.415 14.208C206.223 13.968 206.079 13.692 205.983 13.38C205.887 13.056 205.839 12.738 205.839 12.426C205.839 11.694 206.007 11.064 206.343 10.536C206.691 10.008 207.219 9.612 207.927 9.348C208.791 9.036 210.117 8.88 211.905 8.88H212.139V8.34C212.139 7.584 211.965 7.008 211.617 6.612C211.281 6.216 210.711 6.018 209.907 6.018C209.367 6.018 208.857 6.078 208.377 6.198C207.897 6.306 207.441 6.492 207.009 6.756ZM222.415 9.438C222.415 8.946 222.367 8.508 222.271 8.124C222.175 7.74 222.025 7.392 221.821 7.08C221.377 6.372 220.735 6.018 219.895 6.018C219.031 6.018 218.329 6.378 217.789 7.098C217.573 7.422 217.393 7.794 217.249 8.214C217.105 8.634 217.027 9.042 217.015 9.438H222.415ZM217.015 10.464C217.003 11.064 217.069 11.598 217.213 12.066C217.369 12.522 217.591 12.906 217.879 13.218C218.167 13.53 218.509 13.77 218.905 13.938C219.313 14.106 219.763 14.19 220.255 14.19C220.735 14.19 221.185 14.148 221.605 14.064C222.025 13.968 222.415 13.818 222.775 13.614C222.931 13.542 223.009 13.584 223.009 13.74V14.55C223.009 14.658 222.943 14.742 222.811 14.802C222.415 14.958 222.001 15.072 221.569 15.144C221.137 15.228 220.669 15.27 220.165 15.27C218.689 15.27 217.573 14.844 216.817 13.992C216.061 13.128 215.683 11.832 215.683 10.104C215.683 8.58 216.061 7.35 216.817 6.414C217.609 5.466 218.611 4.992 219.823 4.992C220.495 4.992 221.077 5.112 221.569 5.352C222.061 5.592 222.481 5.952 222.829 6.432C223.441 7.284 223.747 8.424 223.747 9.852C223.747 10.008 223.741 10.128 223.729 10.212C223.729 10.296 223.711 10.356 223.675 10.392C223.639 10.428 223.573 10.452 223.477 10.464C223.393 10.464 223.267 10.464 223.099 10.464H217.015ZM232.224 9.438C232.224 8.946 232.176 8.508 232.08 8.124C231.984 7.74 231.834 7.392 231.63 7.08C231.186 6.372 230.544 6.018 229.704 6.018C228.84 6.018 228.138 6.378 227.598 7.098C227.382 7.422 227.202 7.794 227.058 8.214C226.914 8.634 226.836 9.042 226.824 9.438H232.224ZM226.824 10.464C226.812 11.064 226.878 11.598 227.022 12.066C227.178 12.522 227.4 12.906 227.688 13.218C227.976 13.53 228.318 13.77 228.714 13.938C229.122 14.106 229.572 14.19 230.064 14.19C230.544 14.19 230.994 14.148 231.414 14.064C231.834 13.968 232.224 13.818 232.584 13.614C232.74 13.542 232.818 13.584 232.818 13.74V14.55C232.818 14.658 232.752 14.742 232.62 14.802C232.224 14.958 231.81 15.072 231.378 15.144C230.946 15.228 230.478 15.27 229.974 15.27C228.498 15.27 227.382 14.844 226.626 13.992C225.87 13.128 225.492 11.832 225.492 10.104C225.492 8.58 225.87 7.35 226.626 6.414C227.418 5.466 228.42 4.992 229.632 4.992C230.304 4.992 230.886 5.112 231.378 5.352C231.87 5.592 232.29 5.952 232.638 6.432C233.25 7.284 233.556 8.424 233.556 9.852C233.556 10.008 233.55 10.128 233.538 10.212C233.538 10.296 233.52 10.356 233.484 10.392C233.448 10.428 233.382 10.452 233.286 10.464C233.202 10.464 233.076 10.464 232.908 10.464H226.824ZM235.535 13.794C236.267 14.094 237.023 14.244 237.803 14.244C238.451 14.244 238.985 14.088 239.405 13.776C239.825 13.452 240.035 13.02 240.035 12.48C240.035 12.168 239.915 11.868 239.675 11.58C239.447 11.28 239.165 11.034 238.829 10.842C238.457 10.638 238.073 10.446 237.677 10.266C237.293 10.074 236.921 9.876 236.561 9.672C236.129 9.432 235.811 9.138 235.607 8.79C235.403 8.43 235.301 8.058 235.301 7.674C235.301 7.23 235.385 6.84 235.553 6.504C235.721 6.168 235.949 5.886 236.237 5.658C236.525 5.43 236.861 5.262 237.245 5.154C237.629 5.046 238.037 4.992 238.469 4.992C238.925 4.992 239.321 5.016 239.657 5.064C239.993 5.112 240.329 5.184 240.665 5.28C240.737 5.304 240.797 5.34 240.845 5.388C240.905 5.436 240.929 5.502 240.917 5.586L240.863 6.126C240.851 6.222 240.815 6.282 240.755 6.306C240.695 6.33 240.635 6.33 240.575 6.306C240.275 6.198 239.975 6.126 239.675 6.09C239.375 6.042 239.015 6.018 238.595 6.018C237.203 6.018 236.507 6.57 236.507 7.674C236.507 7.914 236.597 8.142 236.777 8.358C236.969 8.574 237.287 8.79 237.731 9.006C238.115 9.198 238.493 9.384 238.865 9.564C239.237 9.732 239.639 9.936 240.071 10.176C240.443 10.38 240.749 10.692 240.989 11.112C241.241 11.532 241.367 11.988 241.367 12.48C241.367 12.96 241.271 13.374 241.079 13.722C240.887 14.07 240.629 14.358 240.305 14.586C239.981 14.814 239.609 14.982 239.189 15.09C238.769 15.21 238.337 15.27 237.893 15.27C237.629 15.27 237.389 15.264 237.173 15.252C236.969 15.24 236.771 15.222 236.579 15.198C236.399 15.174 236.213 15.144 236.021 15.108C235.829 15.072 235.625 15.024 235.409 14.964C235.241 14.904 235.163 14.796 235.175 14.64L235.247 13.974C235.271 13.782 235.367 13.722 235.535 13.794ZM251.39 14.73C251.39 14.898 251.306 14.982 251.138 14.982H250.49C250.322 14.982 250.238 14.898 250.238 14.73V13.236C249.926 13.956 249.506 14.478 248.978 14.802C248.462 15.114 247.808 15.27 247.016 15.27C244.772 15.27 243.65 14.016 243.65 11.508V5.496C243.65 5.328 243.734 5.244 243.902 5.244H244.622C244.79 5.244 244.874 5.328 244.874 5.496V11.184C244.874 13.224 245.654 14.244 247.214 14.244C247.67 14.244 248.078 14.148 248.438 13.956C248.81 13.752 249.122 13.482 249.374 13.146C249.626 12.798 249.818 12.396 249.95 11.94C250.082 11.484 250.142 11.004 250.13 10.5V5.496C250.13 5.328 250.214 5.244 250.382 5.244H251.102C251.27 5.244 251.354 5.328 251.354 5.496V12.732C251.354 13.128 251.354 13.482 251.354 13.794C251.366 14.106 251.378 14.418 251.39 14.73ZM265.947 4.254C265.947 3.642 265.773 3.162 265.425 2.814C265.101 2.49 264.639 2.328 264.039 2.328C263.739 2.328 263.457 2.37 263.193 2.454C262.941 2.538 262.713 2.658 262.509 2.814C262.053 3.21 261.825 3.696 261.825 4.272C261.825 4.62 261.969 5.04 262.257 5.532C262.545 6.012 262.905 6.504 263.337 7.008C263.769 6.804 264.135 6.618 264.435 6.45C264.747 6.282 264.969 6.138 265.101 6.018C265.665 5.526 265.947 4.938 265.947 4.254ZM262.941 8.232C262.209 8.52 261.627 8.91 261.195 9.402C260.667 9.966 260.403 10.608 260.403 11.328C260.403 12.156 260.721 12.84 261.357 13.38C261.969 13.848 262.689 14.082 263.517 14.082C263.817 14.082 264.123 14.046 264.435 13.974C264.747 13.89 265.047 13.782 265.335 13.65C265.623 13.506 265.893 13.338 266.145 13.146C266.409 12.954 266.637 12.744 266.829 12.516L262.941 8.232ZM270.429 14.658C270.525 14.754 270.567 14.808 270.555 14.82C270.543 14.832 270.471 14.838 270.339 14.838H269.223C269.103 14.838 269.025 14.838 268.989 14.838C268.965 14.826 268.911 14.772 268.827 14.676L267.567 13.326C266.499 14.514 265.137 15.108 263.481 15.108C262.269 15.108 261.261 14.808 260.457 14.208C259.569 13.524 259.125 12.582 259.125 11.382C259.125 9.594 260.181 8.298 262.293 7.494C261.981 7.146 261.729 6.858 261.537 6.63C261.345 6.39 261.201 6.192 261.105 6.036C260.721 5.412 260.529 4.8 260.529 4.2C260.529 3.324 260.913 2.604 261.681 2.04C262.005 1.812 262.377 1.632 262.797 1.5C263.217 1.368 263.655 1.302 264.111 1.302C264.975 1.302 265.701 1.524 266.289 1.968C266.937 2.508 267.261 3.204 267.261 4.056C267.261 5.016 266.919 5.784 266.235 6.36V6.342C266.031 6.522 265.749 6.726 265.389 6.954C265.029 7.17 264.573 7.416 264.021 7.692C264.633 8.364 265.221 9.018 265.785 9.654C266.361 10.29 266.949 10.944 267.549 11.616C267.933 11.076 268.215 10.5 268.395 9.888C268.587 9.264 268.695 8.574 268.719 7.818C268.719 7.686 268.731 7.608 268.755 7.584C268.779 7.56 268.857 7.548 268.989 7.548H269.565C269.709 7.548 269.793 7.56 269.817 7.584C269.841 7.608 269.853 7.686 269.853 7.818C269.829 8.61 269.697 9.39 269.457 10.158C269.217 10.926 268.845 11.67 268.341 12.39L270.429 14.658ZM282.27 15C281.766 15.18 281.268 15.27 280.776 15.27C279.804 15.27 279.162 14.952 278.85 14.316C278.646 13.884 278.544 13.122 278.544 12.03V6.288H276.852C276.684 6.288 276.6 6.204 276.6 6.036V5.496C276.6 5.328 276.684 5.244 276.852 5.244H278.544V2.814C278.544 2.634 278.622 2.544 278.778 2.544H279.534C279.69 2.544 279.768 2.634 279.768 2.814V5.244H281.766C281.934 5.244 282.018 5.328 282.018 5.496V6.036C282.018 6.204 281.934 6.288 281.766 6.288H279.768V12.642C279.768 13.71 280.2 14.244 281.064 14.244C281.4 14.244 281.778 14.172 282.198 14.028C282.258 14.004 282.312 14.004 282.36 14.028C282.42 14.052 282.45 14.1 282.45 14.172L282.486 14.64C282.51 14.808 282.438 14.928 282.27 15ZM290.285 9.438C290.285 8.946 290.237 8.508 290.141 8.124C290.045 7.74 289.895 7.392 289.691 7.08C289.247 6.372 288.605 6.018 287.765 6.018C286.901 6.018 286.199 6.378 285.659 7.098C285.443 7.422 285.263 7.794 285.119 8.214C284.975 8.634 284.897 9.042 284.885 9.438H290.285ZM284.885 10.464C284.873 11.064 284.939 11.598 285.083 12.066C285.239 12.522 285.461 12.906 285.749 13.218C286.037 13.53 286.379 13.77 286.775 13.938C287.183 14.106 287.633 14.19 288.125 14.19C288.605 14.19 289.055 14.148 289.475 14.064C289.895 13.968 290.285 13.818 290.645 13.614C290.801 13.542 290.879 13.584 290.879 13.74V14.55C290.879 14.658 290.813 14.742 290.681 14.802C290.285 14.958 289.871 15.072 289.439 15.144C289.007 15.228 288.539 15.27 288.035 15.27C286.559 15.27 285.443 14.844 284.687 13.992C283.931 13.128 283.553 11.832 283.553 10.104C283.553 8.58 283.931 7.35 284.687 6.414C285.479 5.466 286.481 4.992 287.693 4.992C288.365 4.992 288.947 5.112 289.439 5.352C289.931 5.592 290.351 5.952 290.699 6.432C291.311 7.284 291.617 8.424 291.617 9.852C291.617 10.008 291.611 10.128 291.599 10.212C291.599 10.296 291.581 10.356 291.545 10.392C291.509 10.428 291.443 10.452 291.347 10.464C291.263 10.464 291.137 10.464 290.969 10.464H284.885ZM299.625 9.906H299.283C298.611 9.882 298.011 9.912 297.483 9.996C296.967 10.068 296.535 10.17 296.187 10.302C295.683 10.482 295.305 10.752 295.053 11.112C294.801 11.46 294.675 11.88 294.675 12.372C294.675 12.672 294.723 12.954 294.819 13.218C294.915 13.47 295.065 13.668 295.269 13.812C295.629 14.1 296.109 14.244 296.709 14.244C297.129 14.244 297.513 14.16 297.861 13.992C298.221 13.824 298.533 13.584 298.797 13.272C299.061 12.96 299.265 12.576 299.409 12.12C299.553 11.652 299.625 11.118 299.625 10.518V9.906ZM294.495 6.756C294.435 6.792 294.375 6.804 294.315 6.792C294.267 6.768 294.243 6.726 294.243 6.666V5.982C294.243 5.814 294.327 5.688 294.495 5.604C294.915 5.376 295.359 5.22 295.827 5.136C296.307 5.04 296.829 4.992 297.393 4.992C298.593 4.992 299.469 5.28 300.021 5.856C300.573 6.42 300.849 7.278 300.849 8.43V12.948C300.849 13.308 300.855 13.632 300.867 13.92C300.879 14.196 300.897 14.466 300.921 14.73C300.921 14.898 300.837 14.982 300.669 14.982H300.021C299.853 14.982 299.769 14.898 299.769 14.73V13.344C299.517 13.956 299.091 14.43 298.491 14.766C297.903 15.102 297.261 15.27 296.565 15.27C295.353 15.27 294.465 14.916 293.901 14.208C293.709 13.968 293.565 13.692 293.469 13.38C293.373 13.056 293.325 12.738 293.325 12.426C293.325 11.694 293.493 11.064 293.829 10.536C294.177 10.008 294.705 9.612 295.413 9.348C296.277 9.036 297.603 8.88 299.391 8.88H299.625V8.34C299.625 7.584 299.451 7.008 299.103 6.612C298.767 6.216 298.197 6.018 297.393 6.018C296.853 6.018 296.343 6.078 295.863 6.198C295.383 6.306 294.927 6.492 294.495 6.756ZM308.462 6.342C308.246 6.27 307.958 6.234 307.598 6.234C306.71 6.234 306.05 6.672 305.618 7.548C305.282 8.232 305.114 9.108 305.114 10.176V14.73C305.114 14.898 305.03 14.982 304.862 14.982H304.16C303.992 14.982 303.908 14.898 303.908 14.73V7.422C303.908 6.99 303.902 6.642 303.89 6.378C303.89 6.102 303.884 5.808 303.872 5.496C303.872 5.328 303.956 5.244 304.124 5.244H304.79C304.958 5.244 305.042 5.328 305.042 5.496V7.26C305.63 5.748 306.494 4.992 307.634 4.992C307.91 4.992 308.186 5.028 308.462 5.1C308.534 5.124 308.594 5.166 308.642 5.226C308.702 5.274 308.732 5.346 308.732 5.442V6.198C308.732 6.27 308.702 6.318 308.642 6.342C308.582 6.366 308.522 6.366 308.462 6.342ZM317.557 10.122C317.557 9.558 317.479 9.03 317.323 8.538C317.179 8.046 316.975 7.608 316.711 7.224C316.087 6.456 315.277 6.072 314.281 6.072C313.777 6.072 313.321 6.174 312.913 6.378C312.517 6.57 312.163 6.852 311.851 7.224C311.575 7.608 311.359 8.046 311.203 8.538C311.059 9.03 310.987 9.558 310.987 10.122C310.987 10.698 311.059 11.232 311.203 11.724C311.359 12.216 311.575 12.648 311.851 13.02C312.487 13.8 313.297 14.19 314.281 14.19C314.785 14.19 315.235 14.088 315.631 13.884C316.039 13.68 316.399 13.392 316.711 13.02C316.975 12.648 317.179 12.216 317.323 11.724C317.479 11.232 317.557 10.698 317.557 10.122ZM318.889 10.122C318.889 10.83 318.787 11.49 318.583 12.102C318.379 12.702 318.109 13.23 317.773 13.686C317.353 14.19 316.849 14.58 316.261 14.856C315.685 15.132 315.025 15.27 314.281 15.27C313.537 15.27 312.871 15.132 312.283 14.856C311.695 14.58 311.191 14.19 310.771 13.686C310.435 13.23 310.165 12.702 309.961 12.102C309.769 11.49 309.673 10.83 309.673 10.122C309.673 8.67 310.039 7.482 310.771 6.558C311.611 5.514 312.781 4.992 314.281 4.992C315.037 4.992 315.703 5.124 316.279 5.388C316.855 5.64 317.353 6.03 317.773 6.558C318.517 7.506 318.889 8.694 318.889 10.122ZM325.701 0.509999C325.857 0.557999 325.929 0.683999 325.917 0.887999L325.881 1.41C325.869 1.482 325.839 1.53 325.791 1.554C325.743 1.566 325.689 1.56 325.629 1.536C325.497 1.488 325.377 1.458 325.269 1.446C325.161 1.422 325.035 1.41 324.891 1.41C324.183 1.41 323.727 1.764 323.523 2.472C323.439 2.76 323.397 3.396 323.397 4.38V5.244H325.377C325.545 5.244 325.629 5.328 325.629 5.496V6.036C325.629 6.204 325.545 6.288 325.377 6.288H323.397V14.73C323.397 14.898 323.313 14.982 323.145 14.982H322.443C322.275 14.982 322.191 14.898 322.191 14.73V6.288H320.445C320.277 6.288 320.193 6.204 320.193 6.036V5.496C320.193 5.328 320.277 5.244 320.445 5.244H322.191V4.506C322.191 3.198 322.311 2.256 322.551 1.68C322.923 0.816 323.667 0.383999 324.783 0.383999C325.131 0.383999 325.437 0.425999 325.701 0.509999ZM334.508 10.068C334.508 8.784 334.244 7.794 333.716 7.098C333.188 6.402 332.474 6.054 331.574 6.054C330.602 6.054 329.87 6.378 329.378 7.026C328.886 7.674 328.64 8.7 328.64 10.104C328.64 10.62 328.712 11.094 328.856 11.526C329 11.958 329.198 12.33 329.45 12.642C329.702 12.942 330.002 13.182 330.35 13.362C330.698 13.53 331.076 13.614 331.484 13.614C331.904 13.614 332.3 13.53 332.672 13.362C333.044 13.182 333.362 12.936 333.626 12.624C333.902 12.3 334.118 11.922 334.274 11.49C334.43 11.058 334.508 10.584 334.508 10.068ZM328.316 17.34C328.172 17.304 328.112 17.214 328.136 17.07L328.19 16.278C328.19 16.122 328.268 16.086 328.424 16.17C328.88 16.374 329.318 16.518 329.738 16.602C330.158 16.698 330.614 16.746 331.106 16.746C332.198 16.746 333.014 16.41 333.554 15.738C334.106 15.078 334.418 14.172 334.49 13.02C334.214 13.56 333.806 13.968 333.266 14.244C332.726 14.52 332.126 14.658 331.466 14.658C330.878 14.658 330.332 14.55 329.828 14.334C329.324 14.118 328.886 13.812 328.514 13.416C328.142 13.02 327.848 12.54 327.632 11.976C327.416 11.412 327.308 10.788 327.308 10.104C327.308 9.3 327.38 8.586 327.524 7.962C327.68 7.326 327.92 6.792 328.244 6.36C328.568 5.928 328.988 5.598 329.504 5.37C330.02 5.142 330.644 5.028 331.376 5.028C332.012 5.028 332.57 5.136 333.05 5.352C333.542 5.556 334.04 5.928 334.544 6.468L334.508 5.496C334.508 5.328 334.592 5.244 334.76 5.244H335.444C335.612 5.244 335.696 5.328 335.696 5.496V12.696C335.696 13.476 335.594 14.184 335.39 14.82C335.198 15.444 334.904 15.972 334.508 16.404C334.124 16.848 333.644 17.184 333.068 17.412C332.492 17.652 331.832 17.772 331.088 17.772C330.548 17.772 330.074 17.736 329.666 17.664C329.258 17.604 328.808 17.496 328.316 17.34ZM340.096 14.73C340.096 14.898 340.012 14.982 339.844 14.982H339.052C338.884 14.982 338.8 14.898 338.8 14.73V0.923999C338.8 0.755999 338.884 0.671999 339.052 0.671999H339.844C340.012 0.671999 340.096 0.755999 340.096 0.923999V14.73ZM348.703 9.906H348.361C347.689 9.882 347.089 9.912 346.561 9.996C346.045 10.068 345.613 10.17 345.265 10.302C344.761 10.482 344.383 10.752 344.131 11.112C343.879 11.46 343.753 11.88 343.753 12.372C343.753 12.672 343.801 12.954 343.897 13.218C343.993 13.47 344.143 13.668 344.347 13.812C344.707 14.1 345.187 14.244 345.787 14.244C346.207 14.244 346.591 14.16 346.939 13.992C347.299 13.824 347.611 13.584 347.875 13.272C348.139 12.96 348.343 12.576 348.487 12.12C348.631 11.652 348.703 11.118 348.703 10.518V9.906ZM343.573 6.756C343.513 6.792 343.453 6.804 343.393 6.792C343.345 6.768 343.321 6.726 343.321 6.666V5.982C343.321 5.814 343.405 5.688 343.573 5.604C343.993 5.376 344.437 5.22 344.905 5.136C345.385 5.04 345.907 4.992 346.471 4.992C347.671 4.992 348.547 5.28 349.099 5.856C349.651 6.42 349.927 7.278 349.927 8.43V12.948C349.927 13.308 349.933 13.632 349.945 13.92C349.957 14.196 349.975 14.466 349.999 14.73C349.999 14.898 349.915 14.982 349.747 14.982H349.099C348.931 14.982 348.847 14.898 348.847 14.73V13.344C348.595 13.956 348.169 14.43 347.569 14.766C346.981 15.102 346.339 15.27 345.643 15.27C344.431 15.27 343.543 14.916 342.979 14.208C342.787 13.968 342.643 13.692 342.547 13.38C342.451 13.056 342.403 12.738 342.403 12.426C342.403 11.694 342.571 11.064 342.907 10.536C343.255 10.008 343.783 9.612 344.491 9.348C345.355 9.036 346.681 8.88 348.469 8.88H348.703V8.34C348.703 7.584 348.529 7.008 348.181 6.612C347.845 6.216 347.275 6.018 346.471 6.018C345.931 6.018 345.421 6.078 344.941 6.198C344.461 6.306 344.005 6.492 343.573 6.756ZM352.482 13.794C353.214 14.094 353.97 14.244 354.75 14.244C355.398 14.244 355.932 14.088 356.352 13.776C356.772 13.452 356.982 13.02 356.982 12.48C356.982 12.168 356.862 11.868 356.622 11.58C356.394 11.28 356.112 11.034 355.776 10.842C355.404 10.638 355.02 10.446 354.624 10.266C354.24 10.074 353.868 9.876 353.508 9.672C353.076 9.432 352.758 9.138 352.554 8.79C352.35 8.43 352.248 8.058 352.248 7.674C352.248 7.23 352.332 6.84 352.5 6.504C352.668 6.168 352.896 5.886 353.184 5.658C353.472 5.43 353.808 5.262 354.192 5.154C354.576 5.046 354.984 4.992 355.416 4.992C355.872 4.992 356.268 5.016 356.604 5.064C356.94 5.112 357.276 5.184 357.612 5.28C357.684 5.304 357.744 5.34 357.792 5.388C357.852 5.436 357.876 5.502 357.864 5.586L357.81 6.126C357.798 6.222 357.762 6.282 357.702 6.306C357.642 6.33 357.582 6.33 357.522 6.306C357.222 6.198 356.922 6.126 356.622 6.09C356.322 6.042 355.962 6.018 355.542 6.018C354.15 6.018 353.454 6.57 353.454 7.674C353.454 7.914 353.544 8.142 353.724 8.358C353.916 8.574 354.234 8.79 354.678 9.006C355.062 9.198 355.44 9.384 355.812 9.564C356.184 9.732 356.586 9.936 357.018 10.176C357.39 10.38 357.696 10.692 357.936 11.112C358.188 11.532 358.314 11.988 358.314 12.48C358.314 12.96 358.218 13.374 358.026 13.722C357.834 14.07 357.576 14.358 357.252 14.586C356.928 14.814 356.556 14.982 356.136 15.09C355.716 15.21 355.284 15.27 354.84 15.27C354.576 15.27 354.336 15.264 354.12 15.252C353.916 15.24 353.718 15.222 353.526 15.198C353.346 15.174 353.16 15.144 352.968 15.108C352.776 15.072 352.572 15.024 352.356 14.964C352.188 14.904 352.11 14.796 352.122 14.64L352.194 13.974C352.218 13.782 352.314 13.722 352.482 13.794ZM360.111 13.794C360.843 14.094 361.599 14.244 362.379 14.244C363.027 14.244 363.561 14.088 363.981 13.776C364.401 13.452 364.611 13.02 364.611 12.48C364.611 12.168 364.491 11.868 364.251 11.58C364.023 11.28 363.741 11.034 363.405 10.842C363.033 10.638 362.649 10.446 362.253 10.266C361.869 10.074 361.497 9.876 361.137 9.672C360.705 9.432 360.387 9.138 360.183 8.79C359.979 8.43 359.877 8.058 359.877 7.674C359.877 7.23 359.961 6.84 360.129 6.504C360.297 6.168 360.525 5.886 360.813 5.658C361.101 5.43 361.437 5.262 361.821 5.154C362.205 5.046 362.613 4.992 363.045 4.992C363.501 4.992 363.897 5.016 364.233 5.064C364.569 5.112 364.905 5.184 365.241 5.28C365.313 5.304 365.373 5.34 365.421 5.388C365.481 5.436 365.505 5.502 365.493 5.586L365.439 6.126C365.427 6.222 365.391 6.282 365.331 6.306C365.271 6.33 365.211 6.33 365.151 6.306C364.851 6.198 364.551 6.126 364.251 6.09C363.951 6.042 363.591 6.018 363.171 6.018C361.779 6.018 361.083 6.57 361.083 7.674C361.083 7.914 361.173 8.142 361.353 8.358C361.545 8.574 361.863 8.79 362.307 9.006C362.691 9.198 363.069 9.384 363.441 9.564C363.813 9.732 364.215 9.936 364.647 10.176C365.019 10.38 365.325 10.692 365.565 11.112C365.817 11.532 365.943 11.988 365.943 12.48C365.943 12.96 365.847 13.374 365.655 13.722C365.463 14.07 365.205 14.358 364.881 14.586C364.557 14.814 364.185 14.982 363.765 15.09C363.345 15.21 362.913 15.27 362.469 15.27C362.205 15.27 361.965 15.264 361.749 15.252C361.545 15.24 361.347 15.222 361.155 15.198C360.975 15.174 360.789 15.144 360.597 15.108C360.405 15.072 360.201 15.024 359.985 14.964C359.817 14.904 359.739 14.796 359.751 14.64L359.823 13.974C359.847 13.782 359.943 13.722 360.111 13.794Z" fill="black"/>
</svg>
