<svg width="191" height="27" viewBox="0 0 191 27" fill="none" xmlns="http://www.w3.org/2000/svg">
<path d="M15.3188 18.4463C15.3188 21.6763 13.2339 23.6587 9.86719 23.6587C5.88525 23.6587 3.80029 20.9756 3.80029 15.8657V11.4736C3.80029 6.36377 5.86816 3.68066 9.8501 3.68066C12.9946 3.68066 15.1821 5.85107 15.3188 9.06396H18.3608C18.2412 3.9541 15.0283 0.82666 9.90137 0.82666C4.10791 0.82666 0.758301 4.72314 0.758301 11.4736V15.8657C0.758301 22.6162 4.10791 26.5127 9.90137 26.5127C14.8745 26.5127 18.3608 23.334 18.3608 18.7026V13.4561H9.62793V16.0366H15.3188V18.4463ZM29.2129 26.3247C31.9131 26.3247 33.9297 25.2139 34.8184 23.2314H35.1089V26.0171H37.8774V13.3193C37.8774 9.45703 35.3823 7.23535 31.0244 7.23535C27.2305 7.23535 24.3594 9.26904 24.0176 12.2427H26.8716C27.3501 10.6533 28.854 9.74756 30.9902 9.74756C33.5708 9.74756 34.9893 11.0293 34.9893 13.3535V15.0283L29.8965 15.2847C25.6753 15.5068 23.3169 17.4551 23.3169 20.7363C23.3169 24.103 25.6753 26.3247 29.2129 26.3247ZM30.0503 23.7783C27.709 23.7783 26.2563 22.582 26.2563 20.6338C26.2563 18.7026 27.6235 17.5918 30.2212 17.4722L34.9893 17.25V19.4375C34.9893 21.9155 32.853 23.7783 30.0503 23.7783ZM60.4531 13.2339C59.9746 9.42285 57.1719 7.09863 53.0703 7.09863C48.0288 7.09863 45.0894 10.1919 45.0894 15.5068V17.9336C45.0894 23.2485 48.0288 26.3418 53.0703 26.3418C57.1719 26.3418 59.9917 24.0347 60.4531 20.2578H57.582C57.2231 22.377 55.4116 23.7271 53.019 23.7271C49.7891 23.7271 47.9946 21.5396 47.9946 17.5576V15.8828C47.9946 11.9009 49.7891 9.69629 53.019 9.69629C55.4116 9.69629 57.2231 11.0635 57.582 13.2339H60.4531ZM66.7593 26H69.6646V15.0967C69.6646 11.9351 71.7324 9.79883 74.7915 9.79883C77.6968 9.79883 79.064 11.3882 79.064 14.7207V26H81.9692V13.9858C81.9692 9.55957 79.7817 7.13281 75.7485 7.13281C72.9116 7.13281 70.7754 8.43164 69.8013 10.7388H69.562V0.177246H66.7593V26ZM96 26.3418C100.905 26.3418 104.032 23.146 104.032 18.1387V15.3359C104.032 10.3286 100.905 7.13281 96 7.13281C91.0952 7.13281 87.9678 10.3286 87.9678 15.3359V18.1387C87.9678 23.146 91.0952 26.3418 96 26.3418ZM96 9.69629C99.1787 9.69629 101.161 11.9521 101.161 15.5923V17.8652C101.161 21.5225 99.1787 23.7612 96 23.7612C92.8213 23.7612 90.8389 21.5225 90.8389 17.8652V15.5923C90.8389 11.9521 92.8213 9.69629 96 9.69629ZM110.048 26H112.953V15.0796C112.953 11.918 115.004 9.78174 118.063 9.78174C120.951 9.78174 122.318 11.354 122.318 14.7036V26H125.224V13.9688C125.224 9.52539 123.036 7.11572 119.003 7.11572C116.183 7.11572 114.064 8.41455 113.073 10.7217H112.833V7.45752H110.048V26ZM147.475 26V1.33936H144.484V12.0205H134.059V1.33936H131.068V26H134.059V14.7891H144.484V26H147.475ZM168.495 7.45752H165.59V18.3779C165.59 21.5396 163.539 23.6758 160.48 23.6758C157.592 23.6758 156.225 22.1035 156.225 18.7539V7.45752H153.319V19.4888C153.319 23.9321 155.507 26.3418 159.54 26.3418C162.36 26.3418 164.479 25.043 165.47 22.7358H165.709V26H168.495V7.45752ZM183.705 26.3076C187.995 26.3076 190.797 23.2144 190.797 18.4463V14.9941C190.797 10.2432 187.995 7.1499 183.705 7.1499C181.022 7.1499 179.057 8.29492 178.236 10.3286H177.929V0.177246H174.972V26H177.826V23.1631H178.151C179.108 25.2139 181.056 26.3076 183.705 26.3076ZM182.851 23.6587C179.809 23.6587 177.86 21.4712 177.86 18.0361V15.3701C177.86 11.9521 179.809 9.76465 182.851 9.76465C185.927 9.76465 187.875 11.9521 187.875 15.3701V18.0361C187.875 21.4541 185.927 23.6587 182.851 23.6587Z" fill="#3D7FFF"/>
</svg>
